<?xml version="1.0" encoding="UTF-8" standalone="no"?>
<!-- Created with Inkscape (http://www.inkscape.org/) -->

<svg
   width="149.85754mm"
   height="27.066902mm"
   viewBox="0 0 149.85754 27.066902"
   version="1.1"
   id="svg5"
   xmlns:inkscape="http://www.inkscape.org/namespaces/inkscape"
   xmlns:sodipodi="http://sodipodi.sourceforge.net/DTD/sodipodi-0.dtd"
   xmlns="http://www.w3.org/2000/svg"
   xmlns:svg="http://www.w3.org/2000/svg">
  <sodipodi:namedview
     id="namedview7"
     pagecolor="#ffffff"
     bordercolor="#000000"
     borderopacity="0.25"
     inkscape:showpageshadow="2"
     inkscape:pageopacity="0.0"
     inkscape:pagecheckerboard="0"
     inkscape:deskcolor="#d1d1d1"
     inkscape:document-units="mm"
     showgrid="false" />
  <defs
     id="defs2" />
  <g
     inkscape:label="Layer 1"
     inkscape:groupmode="layer"
     id="layer1"
     transform="translate(-242.72364,-99.035398)">
    <g
       aria-label="MpesaFlow"
       id="text186"
       style="font-size:29.1042px;font-family:'Cal Sans';-inkscape-font-specification:'Cal Sans, Normal';fill:#ffffff;stroke-width:0.264583">
      <path
         d="M 242.72363,120.28146 V 99.908523 h 5.06413 l 4.22011,8.993197 q 0.7276,1.57163 1.16417,2.59028 0.46566,1.01864 0.6985,1.68804 0.26193,0.6694 0.40745,1.16417 0.14553,-0.49477 0.37836,-1.16417 0.23283,-0.6694 0.6694,-1.68804 0.46566,-1.01865 1.19327,-2.59028 l 4.24921,-8.993197 h 4.88951 v 20.372937 h -3.98728 v -8.23649 q 0,-1.397 0.0291,-2.38654 0.0291,-0.98954 0.0873,-1.80446 0.0582,-0.84402 0.17462,-1.71715 l -6.78127,14.14464 h -1.97909 l -6.78128,-14.14464 q 0.11642,0.87313 0.17463,1.71715 0.0582,0.81492 0.0873,1.80446 0.0291,0.98954 0.0291,2.38654 v 8.23649 z"
         id="path1021" />
      <path
         d="m 268.27713,126.1023 v -20.95502 h 3.87086 v 2.44475 q 0.61119,-1.25148 1.71715,-2.00819 1.13506,-0.75671 3.11414,-0.75671 1.57163,0 2.91042,0.6403 1.3679,0.61118 2.38655,1.71714 1.01865,1.07686 1.60073,2.53207 0.58208,1.4261 0.58208,3.05594 0,2.18281 -1.01864,3.98728 -0.98955,1.77535 -2.67759,2.85221 -1.68804,1.04775 -3.78355,1.04775 -1.94998,0 -3.05594,-0.6985 -1.10596,-0.72761 -1.71714,-1.92088 v 8.06186 z m 8.06186,-8.99319 q 1.25148,0 2.18282,-0.61119 0.96044,-0.61119 1.48431,-1.60073 0.52388,-1.01865 0.52388,-2.15371 0,-1.19328 -0.52388,-2.18282 -0.52387,-0.98954 -1.48431,-1.57163 -0.93134,-0.61118 -2.18282,-0.61118 -1.28058,0 -2.24102,0.61118 -0.96044,0.61119 -1.48432,1.60073 -0.52387,0.98955 -0.52387,2.18282 0,1.16417 0.52387,2.15371 0.52388,0.98954 1.48432,1.60073 0.96044,0.58209 2.24102,0.58209 z"
         id="path1023" />
      <path
         d="m 293.30674,120.65982 q -2.32833,0 -4.10369,-1.07686 -1.77535,-1.07685 -2.7649,-2.85221 -0.96044,-1.80446 -0.96044,-3.98727 0,-2.18282 1.01865,-3.98728 1.01865,-1.83356 2.7649,-2.91042 1.77536,-1.07686 4.04548,-1.07686 2.27013,0 3.98728,1.07686 1.74625,1.07686 2.70669,2.91042 0.98954,1.80446 0.98954,3.98728 0,0.32014 -0.0291,0.66939 -0.0291,0.34925 -0.0873,0.72761 H 289.5523 q 0.32015,1.33879 1.28059,2.18281 0.98954,0.84402 2.47385,0.84402 1.28059,0 2.21192,-0.58208 0.96044,-0.58208 1.48432,-1.45521 l 3.05594,2.29923 q -0.90223,1.42611 -2.70669,2.32834 -1.80446,0.90223 -4.04549,0.90223 z m -0.0582,-12.51481 q -1.39701,0 -2.38655,0.84402 -0.98954,0.84403 -1.30969,2.21192 h 7.47978 q -0.32014,-1.25148 -1.33879,-2.15371 -0.98954,-0.90223 -2.44475,-0.90223 z"
         id="path1025" />
      <path
         d="m 307.45142,120.65982 q -3.81265,0 -6.28651,-2.64848 l 2.64849,-2.41565 q 1.65893,1.86267 3.55071,1.86267 1.01864,0 1.54252,-0.43657 0.55298,-0.46566 0.55298,-1.13506 0,-0.40746 -0.20373,-0.6985 -0.17462,-0.29104 -0.78581,-0.55298 -0.58209,-0.26194 -1.77536,-0.52388 -2.03729,-0.49477 -3.02684,-1.22237 -0.98954,-0.72761 -1.30968,-1.62984 -0.32015,-0.90223 -0.32015,-1.86267 0,-1.97908 1.48431,-3.28877 1.51342,-1.3388 4.1619,-1.3388 1.83357,0 3.14326,0.55298 1.30969,0.55298 2.47385,2.0664 l -2.85221,2.18282 q -0.55298,-0.87313 -1.25148,-1.25148 -0.66939,-0.37836 -1.4261,-0.37836 -0.81492,0 -1.3679,0.32015 -0.52388,0.32015 -0.52388,1.01865 0,0.37835 0.34925,0.75671 0.34925,0.34925 1.68805,0.6985 2.21192,0.55298 3.37608,1.30968 1.16417,0.72761 1.60074,1.65894 0.43656,0.93134 0.43656,2.0664 0,1.397 -0.78581,2.50296 -0.75671,1.10596 -2.09551,1.74626 -1.30969,0.64029 -2.99773,0.64029 z"
         id="path1027" />
      <path
         d="m 321.7707,120.65982 q -2.0664,0 -3.78354,-1.04775 -1.68805,-1.07686 -2.70669,-2.85221 -0.98955,-1.80447 -0.98955,-3.98728 0,-1.62984 0.58209,-3.05594 0.58208,-1.45521 1.60073,-2.53207 1.01865,-1.10596 2.35744,-1.71714 1.3679,-0.6403 2.93952,-0.6403 1.97909,0 3.08505,0.75671 1.10596,0.72761 1.71715,1.94998 v -2.38654 h 3.89996 v 15.13418 h -3.81265 v -2.47385 q -0.61119,1.28058 -1.74625,2.06639 -1.10596,0.78582 -3.14326,0.78582 z m 0.6403,-3.55071 q 1.30968,0 2.24102,-0.58209 0.96044,-0.61119 1.48431,-1.60073 0.52388,-0.98954 0.52388,-2.15371 0,-1.19327 -0.52388,-2.18282 -0.52387,-0.98954 -1.48431,-1.60073 -0.93134,-0.61118 -2.24102,-0.61118 -1.25149,0 -2.21192,0.61118 -0.93134,0.58209 -1.45521,1.57163 -0.52388,0.98954 -0.52388,2.18282 0,1.13506 0.52388,2.15371 0.52387,0.98954 1.45521,1.60073 0.96043,0.61119 2.21192,0.61119 z"
         id="path1029" />
      <path
         d="M 333.09221,120.28146 V 99.908523 h 11.96183 v 3.667127 h -7.88724 v 4.77309 h 7.74172 v 3.60892 h -7.74172 v 8.3238 z"
         id="path1031" />
      <path
         d="M 347.23686,120.28146 V 99.035397 h 3.92907 v 21.246063 z"
         id="path1033" />
      <path
         d="m 360.97405,120.65982 q -2.32834,0 -4.1619,-1.07686 -1.83357,-1.07685 -2.88132,-2.85221 -1.01864,-1.80446 -1.01864,-3.98727 0,-2.18282 1.01864,-3.98728 1.04775,-1.80446 2.88132,-2.88132 1.83356,-1.07685 4.1619,-1.07685 2.35744,0 4.1619,1.07685 1.83356,1.07686 2.85221,2.88132 1.04775,1.80446 1.04775,3.98728 0,2.18281 -1.04775,3.98727 -1.01865,1.77536 -2.85221,2.85221 -1.80446,1.07686 -4.1619,1.07686 z m 0,-3.57982 q 1.25148,0 2.18281,-0.58208 0.93134,-0.61119 1.42611,-1.60073 0.52387,-0.98955 0.52387,-2.15371 0,-1.19328 -0.52387,-2.18282 -0.49477,-0.98954 -1.42611,-1.57163 -0.93133,-0.61118 -2.18281,-0.61118 -1.25148,0 -2.18282,0.61118 -0.93133,0.58209 -1.45521,1.57163 -0.49477,0.98954 -0.49477,2.18282 0,1.16416 0.49477,2.15371 0.52388,0.98954 1.45521,1.60073 0.93134,0.58208 2.18282,0.58208 z"
         id="path1035" />
      <path
         d="m 373.37242,120.28146 -4.71488,-15.13418 h 4.59847 l 1.94998,8.58574 q 0.11641,0.55298 0.23283,1.16417 0.14552,0.58208 0.23283,1.13506 0.17463,-1.16417 0.49478,-2.32834 l 2.21191,-8.55663 h 4.51116 l 2.35744,8.55663 q 0.32014,1.16417 0.49477,2.32834 0.0873,-0.55298 0.20373,-1.13506 0.14552,-0.61119 0.26193,-1.16417 l 2.09551,-8.58574 h 4.27831 l -4.71488,15.13418 h -4.24921 l -2.47386,-8.61484 q -0.34925,-1.13506 -0.52387,-2.27013 -0.0873,0.55298 -0.20373,1.13507 -0.11642,0.58208 -0.26194,1.13506 l -2.27013,8.61484 z"
         id="path1037" />
    </g>
  </g>
</svg>
