<?xml version="1.0" encoding="UTF-8" standalone="no"?>
<!-- Created with Inkscape (http://www.inkscape.org/) -->

<svg
   width="149.85754mm"
   height="27.06691mm"
   viewBox="0 0 149.85754 27.06691"
   version="1.1"
   id="svg5"
   xmlns:inkscape="http://www.inkscape.org/namespaces/inkscape"
   xmlns:sodipodi="http://sodipodi.sourceforge.net/DTD/sodipodi-0.dtd"
   xmlns="http://www.w3.org/2000/svg"
   xmlns:svg="http://www.w3.org/2000/svg">
  <sodipodi:namedview
     id="namedview7"
     pagecolor="#ffffff"
     bordercolor="#000000"
     borderopacity="0.25"
     inkscape:showpageshadow="2"
     inkscape:pageopacity="0.0"
     inkscape:pagecheckerboard="0"
     inkscape:deskcolor="#d1d1d1"
     inkscape:document-units="mm"
     showgrid="false" />
  <defs
     id="defs2" />
  <g
     inkscape:label="Layer 1"
     inkscape:groupmode="layer"
     id="layer1"
     transform="translate(-243.07636,-131.83944)">
    <g
       aria-label="MpesaFlow"
       id="text348"
       style="font-size:29.1042px;font-family:'Cal Sans';-inkscape-font-specification:'Cal Sans, Normal';fill:#010101;stroke-width:0.264583">
      <path
         d="m 243.07636,153.08549 v -20.37294 h 5.06414 l 4.2201,8.9932 q 0.72761,1.57163 1.16417,2.59028 0.46567,1.01864 0.6985,1.68804 0.26194,0.6694 0.40746,1.16417 0.14552,-0.49477 0.37836,-1.16417 0.23283,-0.6694 0.66939,-1.68804 0.46567,-1.01865 1.19328,-2.59028 l 4.24921,-8.9932 h 4.8895 v 20.37294 h -3.98727 v -8.23648 q 0,-1.39701 0.0291,-2.38655 0.0291,-0.98954 0.0873,-1.80446 0.0582,-0.84402 0.17462,-1.71715 l -6.78128,14.14464 h -1.97908 l -6.78128,-14.14464 q 0.11642,0.87313 0.17462,1.71715 0.0582,0.81492 0.0873,1.80446 0.0291,0.98954 0.0291,2.38655 v 8.23648 z"
         id="path904" />
      <path
         d="m 268.62987,158.90634 v -20.95503 h 3.87085 v 2.44475 q 0.61119,-1.25148 1.71715,-2.00819 1.13507,-0.75671 3.11415,-0.75671 1.57163,0 2.91042,0.6403 1.3679,0.61119 2.38655,1.71714 1.01864,1.07686 1.60073,2.53207 0.58208,1.42611 0.58208,3.05594 0,2.18282 -1.01865,3.98728 -0.98954,1.77535 -2.67758,2.85221 -1.68805,1.04775 -3.78355,1.04775 -1.94998,0 -3.05594,-0.6985 -1.10596,-0.72761 -1.71715,-1.92088 v 8.06187 z m 8.06186,-8.9932 q 1.25148,0 2.18281,-0.61119 0.96044,-0.61119 1.48432,-1.60073 0.52387,-1.01865 0.52387,-2.15371 0,-1.19328 -0.52387,-2.18282 -0.52388,-0.98954 -1.48432,-1.57162 -0.93133,-0.61119 -2.18281,-0.61119 -1.28059,0 -2.24102,0.61119 -0.96044,0.61118 -1.48432,1.60073 -0.52387,0.98954 -0.52387,2.18281 0,1.16417 0.52387,2.15371 0.52388,0.98954 1.48432,1.60073 0.96043,0.58209 2.24102,0.58209 z"
         id="path906" />
      <path
         d="m 293.65948,153.46385 q -2.32833,0 -4.10369,-1.07686 -1.77536,-1.07685 -2.7649,-2.85221 -0.96044,-1.80446 -0.96044,-3.98727 0,-2.18282 1.01865,-3.98728 1.01865,-1.83356 2.7649,-2.91042 1.77535,-1.07685 4.04548,-1.07685 2.27013,0 3.98728,1.07685 1.74625,1.07686 2.70669,2.91042 0.98954,1.80446 0.98954,3.98728 0,0.32014 -0.0291,0.66939 -0.0291,0.34925 -0.0873,0.72761 h -11.32153 q 0.32015,1.33879 1.28058,2.18281 0.98955,0.84403 2.47386,0.84403 1.28059,0 2.21192,-0.58209 0.96044,-0.58208 1.48431,-1.45521 l 3.05595,2.29923 q -0.90223,1.42611 -2.70669,2.32834 -1.80447,0.90223 -4.04549,0.90223 z m -0.0582,-12.51481 q -1.397,0 -2.38654,0.84403 -0.98954,0.84402 -1.30969,2.21191 h 7.47978 q -0.32015,-1.25148 -1.33879,-2.15371 -0.98955,-0.90223 -2.44476,-0.90223 z"
         id="path908" />
      <path
         d="m 307.80416,153.46385 q -3.81265,0 -6.28651,-2.64848 l 2.64848,-2.41565 q 1.65894,1.86267 3.55072,1.86267 1.01864,0 1.54252,-0.43657 0.55298,-0.46566 0.55298,-1.13506 0,-0.40746 -0.20373,-0.6985 -0.17463,-0.29104 -0.78582,-0.55298 -0.58208,-0.26194 -1.77535,-0.52388 -2.0373,-0.49477 -3.02684,-1.22237 -0.98954,-0.72761 -1.30969,-1.62984 -0.32014,-0.90223 -0.32014,-1.86267 0,-1.97908 1.48431,-3.28877 1.51342,-1.33879 4.1619,-1.33879 1.83357,0 3.14326,0.55298 1.30968,0.55298 2.47385,2.06639 l -2.85221,2.18282 q -0.55298,-0.87313 -1.25148,-1.25148 -0.6694,-0.37836 -1.42611,-0.37836 -0.81491,0 -1.36789,0.32015 -0.52388,0.32015 -0.52388,1.01865 0,0.37835 0.34925,0.75671 0.34925,0.34925 1.68805,0.6985 2.21191,0.55298 3.37608,1.30969 1.16417,0.7276 1.60073,1.65894 0.43657,0.93133 0.43657,2.06639 0,1.39701 -0.78582,2.50297 -0.75671,1.10595 -2.0955,1.74625 -1.30969,0.64029 -2.99773,0.64029 z"
         id="path910" />
      <path
         d="m 322.12344,153.46385 q -2.0664,0 -3.78355,-1.04775 -1.68804,-1.07686 -2.70669,-2.85221 -0.98954,-1.80446 -0.98954,-3.98728 0,-1.62983 0.58208,-3.05594 0.58209,-1.45521 1.60074,-2.53207 1.01864,-1.10595 2.35744,-1.71714 1.36789,-0.6403 2.93952,-0.6403 1.97909,0 3.08505,0.75671 1.10596,0.72761 1.71714,1.94999 v -2.38655 h 3.89997 v 15.13418 h -3.81265 v -2.47385 q -0.61119,1.28058 -1.74626,2.0664 -1.10596,0.78581 -3.14325,0.78581 z m 0.64029,-3.55071 q 1.30969,0 2.24103,-0.58209 0.96043,-0.61119 1.48431,-1.60073 0.52388,-0.98954 0.52388,-2.15371 0,-1.19327 -0.52388,-2.18281 -0.52388,-0.98955 -1.48431,-1.60073 -0.93134,-0.61119 -2.24103,-0.61119 -1.25148,0 -2.21192,0.61119 -0.93133,0.58208 -1.45521,1.57162 -0.52387,0.98954 -0.52387,2.18282 0,1.13506 0.52387,2.15371 0.52388,0.98954 1.45521,1.60073 0.96044,0.61119 2.21192,0.61119 z"
         id="path912" />
      <path
         d="m 333.44495,153.08549 v -20.37294 h 11.96182 v 3.66713 h -7.88723 v 4.77309 h 7.74171 v 3.60892 h -7.74171 v 8.3238 z"
         id="path914" />
      <path
         d="m 347.5896,153.08549 v -21.24606 h 3.92907 v 21.24606 z"
         id="path916" />
      <path
         d="m 361.32679,153.46385 q -2.32834,0 -4.1619,-1.07686 -1.83357,-1.07685 -2.88132,-2.85221 -1.01865,-1.80446 -1.01865,-3.98727 0,-2.18282 1.01865,-3.98728 1.04775,-1.80446 2.88132,-2.88131 1.83356,-1.07686 4.1619,-1.07686 2.35744,0 4.1619,1.07686 1.83356,1.07685 2.85221,2.88131 1.04775,1.80446 1.04775,3.98728 0,2.18281 -1.04775,3.98727 -1.01865,1.77536 -2.85221,2.85221 -1.80446,1.07686 -4.1619,1.07686 z m 0,-3.57982 q 1.25148,0 2.18281,-0.58208 0.93134,-0.61119 1.42611,-1.60073 0.52387,-0.98954 0.52387,-2.15371 0,-1.19328 -0.52387,-2.18282 -0.49477,-0.98954 -1.42611,-1.57162 -0.93133,-0.61119 -2.18281,-0.61119 -1.25148,0 -2.18282,0.61119 -0.93133,0.58208 -1.45521,1.57162 -0.49477,0.98954 -0.49477,2.18282 0,1.16417 0.49477,2.15371 0.52388,0.98954 1.45521,1.60073 0.93134,0.58208 2.18282,0.58208 z"
         id="path918" />
      <path
         d="m 373.72516,153.08549 -4.71488,-15.13418 h 4.59846 l 1.94998,8.58574 q 0.11642,0.55298 0.23284,1.16417 0.14552,0.58208 0.23283,1.13506 0.17463,-1.16417 0.49477,-2.32833 l 2.21192,-8.55664 h 4.51115 l 2.35744,8.55664 q 0.32015,1.16416 0.49477,2.32833 0.0873,-0.55298 0.20373,-1.13506 0.14553,-0.61119 0.26194,-1.16417 l 2.0955,-8.58574 h 4.27832 l -4.71488,15.13418 h -4.24921 l -2.47386,-8.61484 q -0.34925,-1.13506 -0.52387,-2.27013 -0.0873,0.55298 -0.20373,1.13507 -0.11642,0.58208 -0.26194,1.13506 l -2.27013,8.61484 z"
         id="path920" />
    </g>
  </g>
</svg>
