<svg width="2559" height="387" viewBox="0 0 2559 387" fill="none" xmlns="http://www.w3.org/2000/svg">
<g clip-path="url(#clip0_99_39)">
<path d="M415.805 303.774V12.4839H488.211L548.55 141.068C555.485 156.048 561.034 168.394 565.195 178.103C569.634 187.813 572.963 195.858 575.182 202.239C577.679 208.619 579.621 214.168 581.008 218.884C582.395 214.168 584.198 208.619 586.418 202.239C588.637 195.858 591.827 187.813 595.989 178.103C600.427 168.394 606.115 156.048 613.05 141.068L673.805 12.4839H743.714V303.774H686.705V186.01C686.705 172.694 686.844 161.319 687.121 151.887C687.398 142.455 687.814 133.855 688.369 126.087C688.924 118.042 689.756 109.858 690.866 101.536L593.908 303.774H565.611L468.653 101.536C469.763 109.858 470.595 118.042 471.15 126.087C471.704 133.855 472.12 142.455 472.398 151.887C472.675 161.319 472.814 172.694 472.814 186.01V303.774H415.805Z" fill="black" style="fill:black;fill-opacity:1;"/>
<path d="M781.167 387V87.3875H836.512V122.342C842.338 110.413 850.521 100.842 861.063 93.6293C871.883 86.4164 886.725 82.8101 905.589 82.8101C920.57 82.8101 934.441 85.8616 947.202 91.9649C960.241 97.7907 971.615 105.975 981.325 116.516C991.035 126.781 998.663 138.849 1004.21 152.72C1009.76 166.313 1012.53 180.878 1012.53 196.413C1012.53 217.22 1007.68 236.223 997.97 253.423C988.538 270.345 975.776 283.939 959.686 294.204C943.596 304.191 925.564 309.184 905.589 309.184C887.002 309.184 872.438 305.855 861.896 299.197C851.354 292.262 843.17 283.107 837.344 271.733V387H781.167ZM896.435 258.417C908.364 258.417 918.767 255.504 927.644 249.678C936.799 243.852 943.873 236.223 948.867 226.791C953.86 217.081 956.357 206.817 956.357 195.997C956.357 184.623 953.86 174.22 948.867 164.787C943.873 155.355 936.799 147.865 927.644 142.317C918.767 136.491 908.364 133.578 896.435 133.578C884.228 133.578 873.547 136.491 864.393 142.317C855.238 148.142 848.164 155.771 843.17 165.204C838.177 174.636 835.679 185.039 835.679 196.413C835.679 207.51 838.177 217.774 843.17 227.207C848.164 236.639 855.238 244.268 864.393 250.094C873.547 255.642 884.228 258.417 896.435 258.417Z" fill="black" style="fill:black;fill-opacity:1;"/>
<path d="M1139.04 309.183C1116.84 309.183 1097.29 304.051 1080.36 293.787C1063.44 283.522 1050.26 269.928 1040.83 253.006C1031.68 235.806 1027.1 216.803 1027.1 195.996C1027.1 175.19 1031.95 156.187 1041.66 138.987C1051.37 121.509 1064.55 107.638 1081.2 97.3737C1098.12 87.1092 1117.4 81.9771 1139.04 81.9771C1160.68 81.9771 1179.68 87.1092 1196.05 97.3737C1212.69 107.638 1225.59 121.509 1234.75 138.987C1244.18 156.187 1248.9 175.19 1248.9 195.996C1248.9 199.048 1248.76 202.238 1248.48 205.567C1248.2 208.896 1247.79 212.364 1247.23 215.97H1085.36C1088.41 228.732 1094.51 239.135 1103.67 247.18C1113.1 255.225 1124.89 259.248 1139.04 259.248C1151.24 259.248 1161.79 256.474 1170.66 250.925C1179.82 245.377 1186.89 238.441 1191.89 230.119L1235.58 262.993C1226.98 276.587 1214.08 287.683 1196.88 296.283C1179.68 304.883 1160.4 309.183 1139.04 309.183ZM1138.21 130.248C1124.89 130.248 1113.52 134.271 1104.08 142.316C1094.65 150.361 1088.41 160.903 1085.36 173.941H1192.3C1189.25 162.012 1182.87 151.748 1173.16 143.148C1163.73 134.548 1152.08 130.248 1138.21 130.248Z" fill="black" style="fill:black;fill-opacity:1;"/>
<path d="M1341.28 309.183C1304.93 309.183 1274.97 296.561 1251.39 271.316L1289.26 236.777C1305.07 254.532 1322 263.409 1340.03 263.409C1349.74 263.409 1357.09 261.329 1362.08 257.167C1367.35 252.729 1369.99 247.319 1369.99 240.938C1369.99 237.054 1369.02 233.725 1367.08 230.951C1365.41 228.177 1361.67 225.542 1355.84 223.045C1350.29 220.548 1341.83 218.051 1330.46 215.554C1311.04 210.838 1296.61 205.012 1287.18 198.077C1277.75 191.141 1271.51 183.374 1268.45 174.774C1265.4 166.174 1263.88 157.296 1263.88 148.141C1263.88 129.277 1270.95 113.603 1285.1 101.119C1299.53 88.3575 1319.36 81.9771 1344.61 81.9771C1362.08 81.9771 1377.06 84.6126 1389.55 89.8835C1402.03 95.1545 1413.82 105.003 1424.92 119.429L1384.14 150.638C1378.87 142.316 1372.9 136.351 1366.24 132.745C1359.86 129.138 1353.07 127.335 1345.85 127.335C1338.09 127.335 1331.57 128.861 1326.3 131.912C1321.3 134.964 1318.81 139.819 1318.81 146.477C1318.81 150.083 1320.47 153.69 1323.8 157.296C1327.13 160.625 1335.17 163.954 1347.93 167.283C1369.02 172.554 1385.11 178.796 1396.21 186.009C1407.3 192.945 1414.93 200.851 1419.09 209.729C1423.25 218.606 1425.33 228.454 1425.33 239.274C1425.33 252.59 1421.59 264.519 1414.1 275.061C1406.89 285.603 1396.9 293.925 1384.14 300.029C1371.65 306.132 1357.37 309.183 1341.28 309.183Z" fill="black" style="fill:black;fill-opacity:1;"/>
<path d="M1546.01 309.184C1526.32 309.184 1508.28 304.191 1491.92 294.204C1475.83 283.939 1462.93 270.346 1453.22 253.423C1443.78 236.223 1439.07 217.22 1439.07 196.413C1439.07 180.878 1441.84 166.313 1447.39 152.72C1452.94 138.849 1460.57 126.781 1470.28 116.516C1479.99 105.975 1491.22 97.7907 1503.98 91.9649C1517.02 85.8616 1531.03 82.8101 1546.01 82.8101C1564.88 82.8101 1579.58 86.4164 1590.12 93.6293C1600.67 100.565 1608.85 109.858 1614.67 121.51V87.3875H1670.44V303.775H1615.92V268.404C1610.1 280.61 1601.78 290.458 1590.96 297.949C1580.41 305.439 1565.43 309.184 1546.01 309.184ZM1555.17 258.417C1567.65 258.417 1578.33 255.642 1587.21 250.094C1596.37 244.268 1603.44 236.639 1608.43 227.207C1613.43 217.775 1615.92 207.51 1615.92 196.413C1615.92 185.039 1613.43 174.636 1608.43 165.204C1603.44 155.771 1596.37 148.142 1587.21 142.317C1578.33 136.491 1567.65 133.578 1555.17 133.578C1543.24 133.578 1532.7 136.491 1523.54 142.317C1514.67 147.865 1507.73 155.355 1502.74 164.787C1497.74 174.22 1495.25 184.623 1495.25 195.997C1495.25 206.817 1497.74 217.081 1502.74 226.791C1507.73 236.223 1514.67 243.852 1523.54 249.678C1532.7 255.504 1543.24 258.417 1555.17 258.417Z" fill="black" style="fill:black;fill-opacity:1;"/>
<path d="M1707.89 303.774V12.4839H1878.92V64.9161H1766.14V133.161H1876.84V184.761H1766.14V303.774H1707.89Z" fill="black" style="fill:black;fill-opacity:1;"/>
<path d="M1910.12 303.774V0H1966.3V303.774H1910.12Z" fill="black" style="fill:black;fill-opacity:1;"/>
<path d="M2106.54 309.184C2084.35 309.184 2064.51 304.052 2047.03 293.787C2029.56 283.523 2015.82 269.929 2005.84 253.006C1996.13 235.806 1991.27 216.803 1991.27 195.997C1991.27 175.19 1996.13 156.187 2005.84 138.987C2015.82 121.787 2029.56 108.055 2047.03 97.7904C2064.51 87.5259 2084.35 82.3936 2106.54 82.3936C2129.01 82.3936 2148.85 87.5259 2166.05 97.7904C2183.52 108.055 2197.12 121.787 2206.83 138.987C2216.81 156.187 2221.81 175.19 2221.81 195.997C2221.81 216.803 2216.81 235.806 2206.83 253.006C2197.12 269.929 2183.52 283.523 2166.05 293.787C2148.85 304.052 2129.01 309.184 2106.54 309.184ZM2106.54 258C2118.47 258 2128.87 255.226 2137.75 249.677C2146.63 243.852 2153.42 236.223 2158.14 226.79C2163.13 217.358 2165.63 207.094 2165.63 195.997C2165.63 184.623 2163.13 174.219 2158.14 164.787C2153.42 155.355 2146.63 147.865 2137.75 142.316C2128.87 136.49 2118.47 133.578 2106.54 133.578C2094.61 133.578 2084.21 136.49 2075.33 142.316C2066.45 147.865 2059.52 155.355 2054.52 164.787C2049.81 174.219 2047.45 184.623 2047.45 195.997C2047.45 207.094 2049.81 217.358 2054.52 226.79C2059.52 236.223 2066.45 243.852 2075.33 249.677C2084.21 255.226 2094.61 258 2106.54 258Z" fill="black" style="fill:black;fill-opacity:1;"/>
<path d="M2283.81 303.774L2216.4 87.3874H2282.14L2310.03 210.145C2311.14 215.416 2312.24 220.965 2313.35 226.791C2314.74 232.339 2315.85 237.749 2316.68 243.02C2318.35 231.923 2320.71 220.826 2323.76 209.729L2355.38 87.3874H2419.88L2453.59 209.729C2456.64 220.826 2459 231.923 2460.66 243.02C2461.5 237.749 2462.47 232.339 2463.58 226.791C2464.96 220.965 2466.21 215.416 2467.32 210.145L2497.28 87.3874H2558.45L2491.04 303.774H2430.29L2394.92 180.6C2391.59 169.781 2389.09 158.962 2387.43 148.142C2386.59 153.413 2385.62 158.823 2384.51 164.371C2383.4 169.92 2382.15 175.329 2380.77 180.6L2348.31 303.774H2283.81Z" fill="black" style="fill:black;fill-opacity:1;"/>
</g>
<path d="M157.902 96.1068C91.4169 29.6217 33.2425 21.311 8.31055 23.3887V214.533C33.2425 212.456 95.5722 212.456 157.902 291.407C220.232 370.358 278.406 362.047 307.493 359.969V168.825C278.406 170.902 220.232 168.825 157.902 96.1068Z" fill="#00E676" style="fill:#00E676;fill:color(display-p3 0.0000 0.9020 0.4627);fill-opacity:1;"/>
<defs>
<clipPath id="clip0_99_39">
<rect width="2142.65" height="387" fill="white" style="fill:white;fill-opacity:1;" transform="translate(415.805)"/>
</clipPath>
</defs>
</svg>
